<?xml version="1.0" standalone="no"?>
<!DOCTYPE svg PUBLIC "-//W3C//DTD SVG 20010904//EN"
 "http://www.w3.org/TR/2001/REC-SVG-20010904/DTD/svg10.dtd">
<svg version="1.0" xmlns="http://www.w3.org/2000/svg"
 width="600.000000pt" height="600.000000pt" viewBox="0 0 600.000000 600.000000"
 preserveAspectRatio="xMidYMid meet">
<g transform="translate(0.000000,600.000000) scale(0.100000,-0.100000)"
fill="#000000" stroke="none">
<path d="M3515 4640 c-28 -11 -70 -73 -99 -146 -13 -34 -51 -108 -84 -165 -33
-57 -64 -117 -68 -134 -10 -44 -53 -134 -84 -181 -36 -51 -149 -271 -180 -349
-33 -82 -149 -308 -162 -316 -6 -4 -8 -11 -4 -17 4 -7 24 -5 59 8 83 29 87 31
87 49 0 9 13 38 29 63 29 46 91 179 91 195 0 4 24 58 54 118 89 181 136 283
136 298 0 8 9 22 19 31 19 17 20 17 30 -3 6 -11 11 -39 11 -63 0 -42 62 -314
80 -353 22 -46 80 -240 76 -251 -3 -7 -26 -16 -53 -19 -26 -4 -64 -11 -83 -17
-19 -6 -35 -9 -36 -7 0 2 -8 -2 -16 -8 -8 -7 -55 -22 -104 -34 -49 -11 -108
-29 -131 -40 -23 -10 -47 -19 -54 -19 -7 0 -55 -13 -108 -29 -53 -16 -130 -37
-171 -46 -41 -10 -79 -21 -85 -24 -5 -3 -14 -6 -20 -8 -5 -1 -37 -9 -70 -19
-87 -24 -242 -16 -310 16 -119 56 -196 123 -273 239 -62 93 -70 92 -71 -7 -1
-62 -27 -186 -47 -222 -8 -14 -22 -45 -33 -70 -39 -95 -246 -334 -328 -380
l-28 -15 45 -2 c74 -4 150 -22 249 -61 83 -31 103 -44 161 -101 65 -64 100
-129 100 -183 0 -36 18 -17 40 45 41 109 88 194 157 279 108 134 143 167 241
224 73 44 173 94 186 94 1 0 3 -14 4 -31 2 -30 -18 -101 -42 -148 -19 -37 -99
-204 -134 -281 -16 -36 -37 -90 -47 -120 -10 -30 -21 -60 -26 -65 -4 -6 -20
-44 -35 -85 -14 -41 -30 -79 -34 -85 -4 -5 -19 -46 -35 -90 -15 -44 -34 -95
-42 -113 -25 -57 -56 -224 -56 -303 0 -111 30 -200 89 -267 62 -71 93 -85 180
-85 84 1 169 23 241 64 67 38 192 172 267 284 72 109 221 386 294 549 81 183
138 366 113 366 -6 0 -11 -4 -11 -9 0 -41 -213 -314 -330 -425 -178 -167 -293
-247 -393 -275 -81 -22 -116 -20 -156 9 -77 54 -80 155 -14 365 50 158 338
825 356 825 2 0 35 11 73 25 38 14 137 44 219 66 83 23 177 54 210 70 55 26
166 55 514 138 74 18 200 56 280 86 80 29 201 67 269 85 67 18 121 35 119 37
-10 9 -536 -74 -565 -89 -34 -17 -55 0 -64 52 -4 24 -19 78 -32 119 -14 42
-37 123 -51 180 -14 57 -63 216 -109 355 -46 138 -87 266 -91 285 -10 45 -50
132 -67 142 -15 10 -17 10 -43 -1z m40 -39 c-3 -2 7 -24 21 -48 14 -24 26 -61
27 -82 0 -22 5 -37 9 -35 4 3 8 -3 8 -13 0 -27 25 -94 33 -87 3 3 3 -2 1 -13
-3 -10 2 -32 10 -48 9 -17 16 -39 16 -50 0 -11 6 -29 13 -40 15 -24 38 -90 36
-102 -1 -4 1 -15 4 -23 21 -51 30 -77 31 -95 1 -11 7 -30 14 -42 6 -12 12 -40
12 -62 0 -28 5 -43 17 -50 10 -5 15 -12 12 -16 -4 -3 4 -42 17 -87 12 -45 20
-86 17 -92 -4 -5 -1 -6 7 -1 10 6 12 4 7 -8 -4 -10 -2 -17 4 -17 7 0 9 -9 6
-22 -7 -26 18 -78 38 -78 8 0 15 -4 15 -8 0 -10 51 -9 68 2 7 4 32 9 55 11 23
2 51 7 62 11 18 7 18 6 7 -8 -11 -14 -59 -32 -77 -29 -3 1 -19 -6 -36 -15 -17
-8 -28 -11 -25 -5 4 6 0 11 -9 11 -9 0 -13 -4 -10 -10 5 -9 -8 -12 -31 -9 -4
0 -11 -5 -15 -13 -7 -10 -9 -10 -9 2 0 13 -2 13 -9 1 -5 -8 -23 -14 -40 -13
-17 0 -33 -4 -37 -9 -3 -5 -10 -7 -15 -4 -5 4 -15 3 -21 -2 -14 -8 -29 -12
-68 -19 -35 -5 -92 -19 -183 -44 -43 -11 -83 -18 -89 -14 -6 4 -8 3 -4 -4 4
-6 -7 -13 -26 -17 -45 -9 -108 -37 -108 -48 0 -4 -4 -6 -9 -2 -5 3 -13 0 -17
-6 -4 -6 -19 -9 -38 -5 -23 4 -27 3 -16 -4 12 -9 12 -10 -5 -8 -11 1 -24 0
-30 -4 -8 -5 -88 -27 -145 -40 -8 -1 -21 -9 -28 -15 -7 -7 -19 -13 -25 -13 -8
0 -8 3 1 9 9 5 4 8 -16 7 -21 -1 -27 -4 -21 -12 6 -8 3 -13 -11 -17 -11 -3
-18 -1 -14 4 9 14 -6 10 -34 -10 -15 -10 -40 -21 -55 -25 -15 -4 -25 -11 -22
-16 3 -5 1 -12 -5 -15 -6 -4 -20 -26 -31 -51 -12 -24 -25 -41 -30 -38 -5 3 -6
-3 -2 -12 4 -12 3 -15 -5 -10 -7 4 -10 2 -6 -7 3 -8 -4 -29 -15 -48 -10 -19
-25 -53 -32 -77 -7 -25 -17 -41 -24 -38 -6 2 -12 -2 -12 -10 0 -7 5 -10 11 -6
6 3 3 -6 -7 -22 -10 -15 -16 -30 -13 -33 3 -4 -4 -13 -15 -21 -17 -11 -20 -21
-15 -46 4 -22 3 -27 -4 -16 -8 12 -10 11 -10 -7 0 -12 -7 -28 -15 -37 -9 -8
-15 -19 -14 -23 4 -25 -2 -43 -13 -37 -6 4 -8 3 -5 -3 4 -6 -8 -46 -27 -89
-42 -101 -97 -259 -99 -284 -1 -11 -4 -20 -8 -20 -4 0 -6 -34 -5 -75 1 -41 -2
-75 -7 -75 -4 0 4 -19 18 -42 18 -30 20 -36 6 -20 -18 21 -20 21 -18 3 0 -11
4 -18 7 -16 4 2 25 -14 49 -35 27 -25 48 -37 58 -33 9 4 14 2 11 -3 -10 -16
139 -3 167 15 12 7 17 8 48 10 18 1 19 3 7 11 -13 8 -12 10 3 10 9 0 17 4 17
8 0 5 12 15 28 23 15 8 42 28 60 44 19 17 37 29 40 29 4 -1 16 8 27 20 12 13
26 21 33 18 7 -2 11 0 10 5 -4 10 38 53 52 53 6 0 10 7 10 15 0 8 4 15 9 15
14 0 122 109 151 153 14 20 31 35 37 32 7 -2 12 -1 12 3 -3 19 3 32 29 57 15
16 20 25 12 21 -8 -4 -6 0 4 8 25 21 29 15 15 -20 -14 -32 -16 -39 -18 -55 0
-5 -7 -7 -13 -3 -10 5 -10 4 -1 -6 9 -10 6 -21 -13 -51 -13 -21 -24 -45 -24
-52 0 -8 -9 -22 -20 -32 -11 -10 -19 -23 -19 -29 3 -19 -31 -87 -40 -82 -5 3
-9 0 -8 -7 1 -40 -4 -61 -12 -49 -6 10 -10 9 -14 -7 -3 -14 -1 -19 6 -14 7 3
4 -3 -5 -14 -10 -11 -18 -23 -18 -28 0 -5 -10 -20 -22 -33 -13 -14 -17 -22 -9
-17 17 10 10 -4 -25 -51 -13 -17 -20 -34 -17 -38 4 -3 2 -6 -4 -6 -6 0 -14
-11 -17 -25 -4 -14 -10 -23 -15 -21 -5 3 -15 -9 -22 -27 -7 -17 -25 -47 -40
-66 -16 -19 -25 -39 -22 -44 3 -6 1 -7 -5 -3 -7 4 -16 -3 -22 -18 -5 -14 -22
-32 -37 -40 -15 -8 -22 -15 -15 -16 7 0 10 -5 7 -10 -4 -6 -11 -8 -16 -5 -5 4
-9 -1 -9 -10 0 -11 -5 -15 -14 -12 -10 4 -13 1 -9 -9 3 -8 -1 -14 -9 -14 -7 0
-18 -10 -23 -23 -6 -12 -18 -22 -28 -22 -10 0 -21 -5 -25 -10 -4 -6 -13 -10
-19 -11 -46 -4 -48 -4 -35 -13 15 -9 -32 -24 -132 -41 -64 -11 -151 3 -139 23
4 6 1 7 -7 2 -7 -5 -21 2 -35 19 -12 14 -24 23 -27 20 -4 -3 -14 13 -24 35 -9
22 -20 38 -24 36 -4 -2 -7 1 -7 8 0 7 -6 32 -13 57 -13 51 -13 171 1 243 5 26
8 51 8 55 -3 21 2 44 8 38 4 -4 13 17 20 46 7 29 15 61 18 71 11 45 17 57 27
51 6 -4 8 -2 4 4 -6 10 20 90 33 102 3 3 7 19 9 35 2 17 9 37 16 45 7 8 18 30
25 49 6 19 19 44 29 55 9 10 11 16 5 12 -16 -9 -17 6 -2 21 7 7 19 33 29 60
38 105 60 156 77 181 9 15 17 32 18 37 0 6 10 27 23 47 13 21 20 43 16 49 -4
7 -3 9 3 6 8 -5 36 50 38 78 1 6 7 9 14 7 7 -1 10 2 7 7 -3 5 -1 23 5 40 6 18
8 51 5 76 -6 35 -10 43 -23 38 -10 -4 -14 -2 -10 4 14 22 -74 -3 -93 -26 -16
-20 -48 -29 -60 -18 -10 10 -12 7 -7 -11 3 -13 3 -21 0 -18 -3 3 -15 0 -27 -6
-11 -7 -31 -12 -43 -12 -27 -1 -38 -12 -22 -22 7 -4 10 -3 6 3 -3 5 0 10 8 10
11 0 12 -4 4 -14 -6 -7 -15 -10 -20 -7 -5 2 -16 -4 -26 -15 -9 -11 -20 -18
-25 -15 -4 3 -8 1 -8 -5 0 -5 -16 -28 -37 -50 -27 -30 -39 -38 -49 -30 -8 7
-14 6 -20 -2 -4 -8 -3 -9 4 -5 29 17 3 -37 -34 -73 -22 -21 -38 -44 -36 -51 3
-7 0 -10 -5 -7 -6 4 -15 -5 -21 -18 -11 -23 -23 -30 -45 -26 -5 1 -6 -3 -2 -9
3 -6 11 -8 16 -5 5 3 6 -1 3 -9 -3 -9 -11 -13 -17 -9 -6 4 -8 -2 -5 -15 4 -12
2 -22 -4 -22 -6 0 -8 -9 -5 -20 3 -11 2 -18 -3 -15 -11 7 -22 -24 -13 -38 4
-7 0 -8 -12 -3 -15 5 -16 4 -5 -9 10 -12 10 -15 -4 -15 -9 0 -16 8 -16 19 0
10 -9 30 -20 44 -11 14 -20 29 -20 35 0 9 -99 97 -110 97 -3 0 -31 13 -62 28
-31 15 -62 27 -68 27 -6 0 -8 5 -4 12 4 6 3 8 -3 5 -13 -8 -146 23 -154 36 -4
5 13 29 37 52 24 23 40 45 37 49 -4 3 1 6 10 6 9 0 23 12 31 28 8 15 15 23 16
19 0 -12 30 19 30 31 0 6 14 24 30 42 17 18 30 38 30 44 0 7 9 22 20 34 11 12
20 28 20 35 0 8 7 20 15 27 8 7 12 16 9 21 -3 5 0 9 5 9 6 0 10 3 9 8 -3 10
36 132 43 132 3 0 5 20 4 45 -1 25 2 45 7 45 5 0 6 9 3 20 -9 27 -1 25 19 -5
15 -23 15 -24 -1 -19 -10 3 -5 -2 10 -11 15 -9 25 -20 22 -25 -4 -6 -1 -10 5
-10 6 0 8 -4 5 -10 -4 -6 1 -7 12 -3 15 6 16 5 5 -9 -11 -14 -11 -16 5 -12 13
4 23 -3 32 -20 8 -14 18 -23 23 -20 4 3 8 1 8 -4 0 -5 15 -17 34 -27 19 -11
33 -23 30 -27 -3 -4 0 -9 5 -9 18 -2 24 -5 65 -22 21 -9 42 -17 46 -17 4 0 13
-7 20 -16 11 -12 34 -14 139 -11 69 2 144 9 166 16 22 7 48 13 57 14 9 1 14 5
11 10 -3 5 4 6 16 2 11 -3 21 -3 21 2 0 9 155 48 183 46 9 -1 15 2 12 8 -4 5
10 9 29 9 20 0 36 4 36 10 0 5 7 7 15 4 8 -4 15 -2 15 3 0 5 11 10 25 11 14 1
35 8 48 16 25 16 114 43 137 41 8 -1 20 2 25 6 6 4 22 10 35 12 14 3 38 10 53
16 16 6 40 11 53 11 16 0 23 4 18 11 -4 8 3 9 25 4 22 -5 31 -3 31 7 0 10 2
10 8 0 5 -7 16 -10 25 -6 9 3 15 10 12 14 -3 4 4 10 15 13 25 6 27 64 6 125
-8 22 -12 43 -9 46 4 3 1 6 -5 6 -7 0 -12 6 -12 13 0 6 -17 68 -39 137 -40
126 -58 207 -67 290 -8 70 -13 87 -30 104 -21 22 -35 20 -66 -9 -15 -14 -29
-21 -32 -16 -8 12 19 33 30 24 5 -4 4 -2 -2 5 -9 10 -7 28 9 70 11 31 24 60
29 63 5 3 22 33 37 66 16 33 34 64 40 67 6 4 9 12 6 17 -4 5 1 12 10 15 9 4
14 13 11 20 -3 8 -1 14 4 14 6 0 10 7 10 17 0 18 48 123 56 123 3 0 2 -5 -2
-12 -4 -7 -3 -8 4 -4 7 4 12 14 12 21 0 10 9 14 25 13 13 -1 22 -4 20 -7z
m-293 -535 c7 4 8 2 4 -5 -9 -13 -26 -5 -25 12 0 9 2 8 6 -1 2 -6 10 -9 15 -6z
m-22 -45 c-5 -10 -6 -22 -2 -26 4 -5 1 -5 -6 -1 -8 5 -14 -2 -18 -23 -4 -17
-13 -36 -20 -42 -8 -6 -14 -24 -14 -40 0 -16 -5 -29 -11 -29 -5 0 -7 -4 -4
-10 7 -12 -9 -45 -41 -83 -13 -16 -24 -37 -24 -48 0 -11 -7 -19 -17 -20 -11 0
-13 -3 -6 -6 10 -3 9 -10 -3 -28 -8 -12 -13 -29 -12 -36 2 -8 -1 -13 -7 -12
-5 1 -11 -9 -11 -21 -2 -30 -34 -96 -46 -96 -5 0 -7 4 -4 8 3 5 -1 9 -9 9 -13
0 -13 -2 0 -17 13 -14 12 -20 -10 -55 -13 -22 -21 -43 -19 -46 2 -4 -11 -9
-30 -11 l-34 -4 16 26 c9 14 22 28 29 33 7 4 10 13 7 21 -3 7 2 19 10 26 9 7
13 16 10 21 -3 5 1 12 10 15 8 3 12 12 9 21 -4 9 1 21 9 27 8 6 16 16 17 21 8
40 15 54 24 48 6 -3 7 -1 3 6 -4 6 0 23 9 37 9 14 14 28 11 32 -3 3 0 12 7 21
8 9 24 42 37 73 13 31 27 55 32 52 4 -3 8 6 8 19 0 14 7 28 16 31 9 4 14 9 11
12 -3 4 3 15 13 27 11 11 17 24 14 29 -3 4 0 8 5 8 6 0 10 3 9 8 -1 4 4 17 12
29 16 26 35 20 20 -6z m-597 -1326 c-3 -9 -8 -14 -10 -11 -3 3 -2 9 2 15 9 16
15 13 8 -4z"/>
<path d="M3388 3333 c7 -3 16 -2 19 1 4 3 -2 6 -13 5 -11 0 -14 -3 -6 -6z"/>
<path d="M2755 1470 c-3 -5 -1 -10 4 -10 6 0 11 5 11 10 0 6 -2 10 -4 10 -3 0
-8 -4 -11 -10z"/>
<path d="M3005 3540 c-3 -5 -1 -10 4 -10 6 0 11 5 11 10 0 6 -2 10 -4 10 -3 0
-8 -4 -11 -10z"/>
<path d="M3912 3309 c-13 -5 -28 -7 -32 -4 -5 3 -11 1 -14 -4 -3 -4 -29 -11
-58 -15 -120 -15 -220 -41 -244 -63 -23 -21 -23 -22 -8 -70 17 -52 17 -52 28
-133 9 -60 43 -195 57 -221 11 -22 67 -235 86 -329 8 -41 16 -131 16 -200 2
-117 0 -129 -25 -184 -16 -32 -28 -64 -28 -71 0 -7 -11 -29 -25 -49 -31 -45
-16 -46 38 -2 115 93 688 436 730 436 41 0 20 19 -46 41 -171 56 -244 189
-363 659 -59 236 -57 232 -112 209z m23 -27 c15 -11 35 -60 35 -87 0 -13 5
-27 11 -30 6 -4 8 -13 6 -19 -5 -11 6 -61 31 -143 6 -17 8 -34 4 -37 -3 -3 -1
-6 5 -6 6 0 9 -9 5 -22 -4 -16 -2 -19 8 -13 8 5 11 4 7 -2 -4 -6 0 -27 8 -47
8 -19 18 -52 21 -73 3 -21 9 -40 13 -43 3 -3 8 -14 9 -25 2 -11 7 -22 11 -25
12 -8 21 -51 9 -44 -6 4 -9 1 -7 -5 3 -7 9 -12 13 -11 9 2 46 -63 50 -88 3
-15 84 -92 98 -92 5 0 7 -4 4 -9 -3 -4 13 -13 35 -20 42 -13 61 -37 38 -51 -7
-5 -17 -6 -21 -4 -4 3 -8 1 -8 -5 0 -6 -15 -14 -32 -19 -18 -5 -32 -14 -31
-21 2 -6 0 -10 -5 -9 -13 4 -102 -42 -102 -53 0 -6 -7 -8 -16 -5 -8 3 -12 2
-9 -4 3 -6 -5 -10 -19 -10 -14 0 -26 -5 -26 -11 0 -5 5 -7 12 -3 7 4 8 3 4 -5
-4 -7 -13 -10 -19 -8 -10 3 -107 -52 -142 -81 -25 -20 -38 -25 -30 -11 5 8 -3
4 -17 -8 -25 -23 -44 -31 -33 -14 3 5 2 12 -3 15 -4 2 -8 -4 -9 -14 -2 -25
-34 -60 -55 -60 -10 0 -18 -4 -18 -9 0 -16 -28 -20 -34 -5 -3 8 -2 13 3 10 5
-3 12 1 15 10 4 10 2 13 -7 8 -9 -6 -9 -4 -1 7 35 43 42 240 13 367 -5 25 -11
57 -13 71 -2 14 -9 38 -15 54 -6 15 -9 27 -6 27 2 0 -8 39 -21 88 -14 48 -27
101 -30 117 -3 17 -13 44 -21 62 -8 18 -11 37 -7 44 4 7 3 9 -3 6 -10 -6 -14
6 -27 86 -16 93 -26 139 -35 155 -11 21 19 69 37 58 6 -3 13 -2 17 4 3 5 19
10 34 10 15 0 31 3 35 7 8 8 14 9 89 11 35 2 46 5 41 15 -4 6 -4 9 0 5 4 -3
24 0 44 7 45 17 45 16 57 7z m266 -739 c13 -16 12 -17 -3 -4 -17 13 -22 21
-14 21 2 0 10 -8 17 -17z"/>
<path d="M4301 2426 c2 -2 15 -9 29 -15 24 -11 24 -11 6 3 -16 13 -49 24 -35
12z"/>
<path d="M3422 3231 c-11 -7 -11 -9 0 -14 9 -3 15 1 15 9 0 8 -1 14 -1 14 -1
0 -7 -4 -14 -9z"/>
<path d="M2171 1634 c0 -11 3 -14 6 -6 3 7 2 16 -1 19 -3 4 -6 -2 -5 -13z"/>
</g>
</svg>
